<svg id="Layer_1" data-name="Layer 1" xmlns="http://www.w3.org/2000/svg" viewBox="0 0 56 56"><defs><style>.cls-1{fill:#0b4ad4;}</style></defs><path class="cls-1" d="M56,30.14V25.89a1,1,0,0,0-.54-.89l-1.7-.88a1,1,0,0,0-.46-.11H41.14a1,1,0,0,0-1,1.22A12.51,12.51,0,1,1,31.26,16a1,1,0,0,0,1.26-1V3.72a1,1,0,0,0-.11-.46L31,.54A1,1,0,0,0,30.13,0H25.9A1,1,0,0,0,25,.54L21.72,6.92a1.06,1.06,0,0,1-.51.47l-3,1.23a1,1,0,0,1-.68,0L10.61,6.43a1,1,0,0,0-1,.26C8.35,8,8,8.44,6.7,9.7a1,1,0,0,0-.24,1c.48,1.52,1.8,5.61,2.19,6.83a1,1,0,0,1,0,.69c-.45,1.09-.79,1.9-1.22,3a1,1,0,0,1-.48.52L.57,25a1,1,0,0,0-.55.89c0,1.79,0,2.45,0,4.24a1,1,0,0,0,.54.9L6.92,34.3a1,1,0,0,1,.46.51l1.24,3a1,1,0,0,1,0,.69L6.47,45.31a1,1,0,0,0,.25,1l3,3a1,1,0,0,0,1,.25l6.83-2.2a1,1,0,0,1,.69,0l3,1.23a1,1,0,0,1,.52.47L25,55.45a1,1,0,0,0,.9.54h4.24a1,1,0,0,0,.9-.54c.73-1.42,2.69-5.23,3.27-6.37a1,1,0,0,1,.5-.46l3-1.24a1,1,0,0,1,.69,0l6.81,2.18a1,1,0,0,0,1-.24l3-3a1,1,0,0,0,.25-1c-.55-1.72-2.19-6.85-2.83-8.83l.5-1.19L55.44,31A1,1,0,0,0,56,30.14Z"/><path class="cls-1" d="M42.13,21.36l-5.9,0a1,1,0,0,1-1-1v-6a1,1,0,0,1,1-1l5.91,0a1,1,0,0,1,1,1v5.95A1,1,0,0,1,42.13,21.36Z"/><rect class="cls-1" x="35.17" y="2.74" width="7.99" height="7.99" rx="1"/><rect class="cls-1" x="45.8" y="13.35" width="7.99" height="7.99" rx="1"/></svg>